<svg xmlns="http://www.w3.org/2000/svg" viewBox="0 0 900 520">
  <title>QRP Coastal Living</title>
  <rect width="900" height="520" fill="#ffffff"/>
  <path d="M170 190 L350 88 L548 200" fill="none" stroke="#082c55" stroke-width="22" stroke-linecap="round" stroke-linejoin="round"/>
  <path d="M548 158 L636 108 L790 198" fill="none" stroke="#082c55" stroke-width="18" stroke-linecap="round" stroke-linejoin="round"/>
  <rect x="326" y="138" width="24" height="24" fill="#78b8b3"/>
  <rect x="360" y="138" width="24" height="24" fill="#78b8b3"/>
  <rect x="326" y="174" width="24" height="24" fill="#78b8b3"/>
  <rect x="360" y="174" width="24" height="24" fill="#78b8b3"/>
  <text x="450" y="355" text-anchor="middle" font-family="Georgia, serif" font-size="210" font-weight="600" letter-spacing="26" fill="#082c55">QRP</text>
  <path d="M110 383 C190 342 260 365 326 389 C410 420 496 423 584 382 C684 338 768 380 820 352" fill="none" stroke="#78b8b3" stroke-width="18" stroke-linecap="round"/>
  <path d="M133 410 C230 384 315 415 410 422 C484 428 555 416 624 392 C704 365 766 389 836 373" fill="none" stroke="#78b8b3" stroke-width="10" stroke-linecap="round" opacity="0.9"/>
  <text x="450" y="482" text-anchor="middle" font-family="Georgia, serif" font-size="48" letter-spacing="24" fill="#78b8b3">COASTAL LIVING</text>
</svg>
